:version 1.10
:name ASF
:units
  mass 1
  length 1
  angle deg
:documentation
  ASF file generated by Kaydara
:root
  axis xyz
  order  tx ty tz rx ry rz
  position 0 0 0
  orientation 0 0 0
:bonedata
  begin
    id 1
    name RightUpLegDummy
    direction -0.718183 -0.695806 0.00816078
    length 4.904
    axis 0 0 0 xyz
  end
  begin
    id 2
    name RightUpLeg
    direction 3.53989e-006 -0.995788 0.0916897
    length 17.4976
    axis -3.49089 -0.000906621 0.000287158 xyz
    dof rx ry rz
  end
  begin
    id 3
    name RightLeg
    direction 0.00371093 -0.995096 -0.0988418
    length 16.5821
    axis 3.68512 0.0193738 -0.131023 xyz
    dof rx ry rz
  end
  begin
    id 4
    name RightFoot
    direction 0.000791514 -0.46099 0.887405
    length 3.77069
    axis 4.84075e-005 -0.120479 -0.188788 xyz
    dof rx ry rz
  end
  begin
    id 5
    name RightToes
    direction 0.00124746 -0.014064 0.9999
    length 3.85082
    axis 0.00048216 0.542163 -0.142577 xyz
    dof rx ry rz
  end
  begin
    id 6
    name SpineDummy
    direction 8.36599e-015 1 5.97571e-016
    length 4.6813
    axis 0 0 0 xyz
  end
  begin
    id 7
    name Spine
    direction -4.63632e-008 0.999988 0.00495137
    length 10.1015
    axis -0.00138897 0.000121419 3.25764e-006 xyz
    dof rx ry rz
  end
  begin
    id 8
    name Spine1
    direction 0 0 0
    length 0
    axis -0.00138896 0.000121452 2.39764e-006 xyz
    dof rx ry rz
  end
  begin
    id 9
    name HEadDummy
    direction -3.91456e-008 0.999999 0.00127422
    length 3.43865
    axis -0.00138896 0.000121452 2.39764e-006 xyz
  end
  begin
    id 10
    name HEad
    direction -0.0222688 0.980941 0.193023
    length 5.12695
    axis -0.00138895 0.000121452 2.39764e-006 xyz
    dof rx ry rz
  end
  begin
    id 11
    name LeftShoulder1Dummy
    direction 0.998891 -0.0402508 -0.0244456
    length 3.5433
    axis -0.00138896 0.000121452 2.39764e-006 xyz
  end
  begin
    id 12
    name LeftShoulder1
    direction 0.99951 -0.000327743 0.0313091
    length 4.05031
    axis -0.00138896 0.000121452 2.39764e-006 xyz
    dof rx ry rz
  end
  begin
    id 13
    name LeftArm
    direction 0.998561 -0.00100054 -0.0536182
    length 10.3537
    axis -23.1894 0.134784 0.96751 xyz
    dof rx ry rz
  end
  begin
    id 14
    name LeftForeArm
    direction 0.998903 0.00866434 0.046012
    length 8.70632
    axis -9.91835 -0.06569 -0.177792 xyz
    dof rx ry rz
  end
  begin
    id 15
    name LeftHand
    direction 0.992938 -0.0411636 0.11126
    length 5.32135
    axis -0.00960227 -0.00340091 0.185174 xyz
    dof rx ry rz
  end
  begin
    id 16
    name RightShoulderDummy
    direction -0.998891 -0.0402509 -0.0244414
    length 3.5433
    axis -0.00138896 0.000121452 2.39764e-006 xyz
  end
  begin
    id 17
    name RightShoulder
    direction -0.99951 -0.000327827 0.0313133
    length 4.05031
    axis 0.215806 0.000203644 -0.00680151 xyz
    dof rx ry rz
  end
  begin
    id 18
    name RightArm
    direction -0.998573 -0.000999583 -0.053403
    length 10.3947
    axis -23.2009 -0.134239 -0.9641 xyz
    dof rx ry rz
  end
  begin
    id 19
    name RightForeArm
    direction -0.998898 0.00868026 0.0461306
    length 8.68355
    axis -9.92322 0.0658061 0.178869 xyz
    dof rx ry rz
  end
  begin
    id 20
    name RightHand
    direction -0.992843 -0.0414603 0.112003
    length 5.28593
    axis -0.00960634 0.00330671 -0.185226 xyz
    dof rx ry rz
  end
  begin
    id 21
    name LeftUpLegDummy
    direction 0.718183 -0.695806 0.00816078
    length 4.904
    axis 0 0 0 xyz
  end
  begin
    id 22
    name LeftUpLeg
    direction -6.8115e-006 -0.995793 0.0916336
    length 17.4976
    axis -3.48766 0.00143441 -0.000523914 xyz
    dof rx ry rz
  end
  begin
    id 23
    name LeftLeg
    direction -0.00601357 -0.995091 -0.0987824
    length 16.5821
    axis 3.68177 -0.00654038 -0.00028478 xyz
    dof rx ry rz
  end
  begin
    id 24
    name LeftFoot
    direction -0.00417578 -0.460984 0.887399
    length 3.77069
    axis 1.87232e-006 4.66002e-005 -8.1837e-006 xyz
    dof rx ry rz
  end
  begin
    id 25
    name LeftToes
    direction 0.00818058 -0.00485161 0.999955
    length 3.85048
    axis 1.06246e-005 4.65855e-005 -8.18502e-006 xyz
    dof rx ry rz
  end
:hierarchy
  begin
    root RightUpLegDummy SpineDummy LeftUpLegDummy
    RightUpLegDummy RightUpLeg
    RightUpLeg RightLeg
    RightLeg RightFoot
    RightFoot RightToes
    SpineDummy Spine
    Spine Spine1
    Spine1 HEadDummy LeftShoulder1Dummy RightShoulderDummy
    HEadDummy HEad
    LeftShoulder1Dummy LeftShoulder1
    LeftShoulder1 LeftArm
    LeftArm LeftForeArm
    LeftForeArm LeftHand
    RightShoulderDummy RightShoulder
    RightShoulder RightArm
    RightArm RightForeArm
    RightForeArm RightHand
    LeftUpLegDummy LeftUpLeg
    LeftUpLeg LeftLeg
    LeftLeg LeftFoot
    LeftFoot LeftToes
  end

:SAMPLES-PER-SECOND 30
:FULLY-SPECIFIED
:DEGREES
20
root  -3.23434 41.0087 -0.0574009 64.4097 -89.3967 -63.1872
RightUpLeg  2.13451 -1.22571 -0.73442
RightLeg  -5.28788 -20.5516 2.97376
RightFoot  2.55325 -0.21034 1.88238
RightToes  -3.1126e-008 1.75238e-005 3.56266e-009
Spine  10.6229 0.317216 -3.68885
Spine1  -15.5377 -0.0488101 4.02215
HEad  1.62152 -1.01481 0.654207
LeftShoulder1  0.412567 1.82234 -17.8913
LeftArm  -40.8268 -18.9836 -32.0149
LeftForeArm  133.821 -76.1127 -133.987
LeftHand  -0.569803 -3.83154 7.42862
RightShoulder  1.1971 0.922513 20.7772
RightArm  12.1511 -19.1631 29.073
RightForeArm  84.1001 79.2751 96.4223
RightHand  0.144313 7.81929 0.892448
LeftUpLeg  1.48871 1.76483 3.71108
LeftLeg  -2.7296 15.9795 -1.09903
LeftFoot  1.10912 0.41327 -3.89014
LeftToes  4.78049e-008 1.46235e-008 1.34219e-009
21
root  -3.23368 41.0086 -0.082496 60.9743 -89.4172 -59.7914
RightUpLeg  2.1465 -1.21425 -0.719377
RightLeg  -5.21989 -20.5775 2.93225
RightFoot  2.48998 -0.207377 1.85083
RightToes  -3.1126e-008 1.75238e-005 3.56266e-009
Spine  10.6045 0.528591 -3.97179
Spine1  -15.41 0.12231 4.43004
HEad  1.6897 -0.864175 0.397592
LeftShoulder1  0.332459 2.15562 -18.0109
LeftArm  -43.2206 -18.3619 -31.9603
LeftForeArm  132.524 -76.2359 -133.264
LeftHand  -0.490476 -3.81653 6.45079
RightShoulder  1.17068 0.875425 20.4418
RightArm  12.5164 -19.2375 29.1018
RightForeArm  84.7215 79.2685 96.9442
RightHand  0.105892 7.67764 0.565467
LeftUpLeg  1.52352 1.76741 3.71832
LeftLeg  -2.74478 15.9104 -1.10077
LeftFoot  1.13334 0.425192 -4.06935
LeftToes  4.78049e-008 1.46235e-008 1.34219e-009
22
root  -3.23283 41.0085 -0.0978868 59.9757 -89.3443 -58.8559
RightUpLeg  2.28875 -1.17762 -0.633782
RightLeg  -5.37563 -20.6718 3.00543
RightFoot  2.54297 -0.201898 1.77808
RightToes  -3.1126e-008 1.75238e-005 3.56266e-009
Spine  10.6466 0.588166 -3.67906
Spine1  -15.3589 0.205066 4.1218
HEad  1.98026 -0.696245 0.441225
LeftShoulder1  0.362295 2.04029 -18.1205
LeftArm  -45.6615 -16.9808 -30.7586
LeftForeArm  131.53 -76.4278 -132.335
LeftHand  -0.502879 -3.90361 6.53692
RightShoulder  1.1378 0.763918 20.368
RightArm  12.9501 -18.742 29.3194
RightForeArm  83.5333 79.2437 96.5084
RightHand  0.0701565 7.37895 0.270144
LeftUpLeg  1.53168 1.7935 3.7884
LeftLeg  -2.63189 15.8429 -1.02393
LeftFoot  1.12561 0.424335 -4.04855
LeftToes  4.78049e-008 1.46235e-008 1.34219e-009
23
root  -3.22716 41.0085 -0.115245 52.579 -89.3094 -51.5278
RightUpLeg  2.30876 -1.22833 -0.649457
RightLeg  -5.25617 -20.72 3.00002
RightFoot  2.47262 -0.20411 1.82467
RightToes  -3.1126e-008 1.75238e-005 3.56266e-009
Spine  10.654 0.639644 -3.63189
Spine1  -15.1607 0.258184 3.97266
HEad  2.09057 -0.494156 0.404122
LeftShoulder1  0.369773 2.01104 -18.1379
LeftArm  -47.884 -15.5279 -29.6319
LeftForeArm  129.477 -76.7218 -130.732
LeftHand  -0.458485 -3.22432 6.38884
RightShoulder  1.12423 0.706754 20.4123
RightArm  12.7061 -18.2282 29.4245
RightForeArm  82.9294 79.3066 95.0908
RightHand  0.146805 7.82646 0.916292
LeftUpLeg  1.58 1.78474 3.78211
LeftLeg  -2.62151 15.7935 -0.999667
LeftFoot  1.15711 0.416196 -3.91336
LeftToes  4.78049e-008 1.46235e-008 1.34219e-009
24
root  -3.22473 41.0085 -0.129535 48.3033 -89.2894 -47.2976
RightUpLeg  2.34839 -1.1556 -0.600217
RightLeg  -5.23848 -20.8492 2.91639
RightFoot  2.47554 -0.204766 1.84424
RightToes  -3.1126e-008 1.75238e-005 3.56266e-009
Spine  10.7679 0.731297 -3.74781
Spine1  -15.2398 0.335448 4.11711
HEad  2.00731 -0.337449 0.521569
LeftShoulder1  0.365251 2.02525 -18.0632
LeftArm  -49.6718 -13.6362 -29.0895
LeftForeArm  128.639 -76.7648 -130.357
LeftHand  -0.671712 -3.80549 8.76024
RightShoulder  1.14794 0.790658 20.4404
RightArm  12.5416 -17.9179 29.1644
RightForeArm  83.3366 79.2796 95.8195
RightHand  0.0756206 7.73876 0.2887
LeftUpLeg  1.58384 1.80936 3.79878
LeftLeg  -2.58004 15.7197 -1.01073
LeftFoot  1.16467 0.421206 -3.98204
LeftToes  4.78049e-008 1.46235e-008 1.34219e-009
25
root  -3.22608 41.0083 -0.14441 44.0231 -89.2027 -43.0001
RightUpLeg  2.37647 -1.1213 -0.549492
RightLeg  -5.31761 -20.9964 2.95381
RightFoot  2.48032 -0.201078 1.81582
RightToes  -3.1126e-008 1.75238e-005 3.56266e-009
Spine  10.8421 0.814094 -3.60579
Spine1  -15.3604 0.432854 3.94843
HEad  1.87482 -0.172142 0.776187
LeftShoulder1  0.330633 2.16496 -18.0544
LeftArm  -51.4231 -12.0939 -29.4679
LeftForeArm  129.718 -76.8392 -130.318
LeftHand  -0.720589 -4.60729 8.65141
RightShoulder  1.2284 1.0688 20.5804
RightArm  12.038 -17.6032 28.6457
RightForeArm  83.0187 79.2576 95.9438
RightHand  0.0105399 7.30537 -0.269513
LeftUpLeg  1.54192 1.83869 3.85112
LeftLeg  -2.53085 15.5882 -0.996025
LeftFoot  1.1833 0.423398 -4.00582
LeftToes  4.78049e-008 1.46235e-008 1.34219e-009
26
root  -3.23392 41.0081 -0.155159 38.3169 -89.0939 -37.2245
RightUpLeg  2.33418 -1.11195 -0.521184
RightLeg  -5.34098 -21.1456 2.98001
RightFoot  2.46456 -0.194718 1.755
RightToes  -3.1126e-008 1.75238e-005 3.56266e-009
Spine  10.9637 0.934821 -3.42482
Spine1  -15.6252 0.578391 3.67656
HEad  2.12529 -0.383461 0.615641
LeftShoulder1  0.347201 2.1047 -18.1811
LeftArm  -52.6078 -9.61277 -29.1994
LeftForeArm  130.106 -76.8418 -130.403
LeftHand  -0.67542 -4.51891 8.18044
RightShoulder  1.25676 1.19176 20.4671
RightArm  10.9211 -17.6168 28.206
RightForeArm  82.7874 79.2711 95.5644
RightHand  0.147981 7.78 0.930883
LeftUpLeg  1.44623 1.79881 3.86033
LeftLeg  -2.50916 15.4687 -0.950858
LeftFoot  1.19096 0.422475 -3.98009
LeftToes  4.78049e-008 1.46235e-008 1.34219e-009
27
root  -3.23442 41.0077 -0.172581 30.7008 -88.9498 -29.5787
RightUpLeg  2.29721 -1.14969 -0.540663
RightLeg  -5.27725 -21.2869 2.99559
RightFoot  2.38546 -0.19115 1.74074
RightToes  -3.1126e-008 1.75238e-005 3.56266e-009
Spine  10.7241 1.06395 -3.40798
Spine1  -15.3151 0.712078 3.50538
HEad  2.27602 -0.737786 0.843973
LeftShoulder1  0.361097 2.05821 -18.3666
LeftArm  -53.5533 -7.49594 -29.0872
LeftForeArm  129.561 -76.7162 -130.77
LeftHand  -0.605564 -3.90725 7.82361
RightShoulder  1.21147 1.04182 20.3508
RightArm  9.87004 -16.9038 27.8541
RightForeArm  81.7199 79.2752 94.7136
RightHand  0.114069 7.74217 0.63553
LeftUpLeg  1.35598 1.82646 3.87302
LeftLeg  -2.45434 15.2674 -0.9753
LeftFoot  1.18538 0.423156 -3.97832
LeftToes  4.78049e-008 1.46235e-008 1.34219e-009
28
root  -3.23766 41.007 -0.188449 23.7813 -88.718 -22.6625
RightUpLeg  2.30628 -1.20532 -0.557302
RightLeg  -5.22373 -21.4943 3.0371
RightFoot  2.29971 -0.184018 1.66858
RightToes  -3.1126e-008 1.75238e-005 3.56266e-009
Spine  10.6502 1.1005 -3.31876
Spine1  -15.1574 0.762917 3.24217
HEad  2.3819 -1.06072 1.00324
LeftShoulder1  0.302496 2.29711 -18.4524
LeftArm  -53.856 -4.82224 -29.5891
LeftForeArm  130.88 -76.4634 -132.056
LeftHand  -0.691691 -3.75942 9.00775
RightShoulder  1.24266 1.16729 20.2955
RightArm  8.34333 -16.1838 27.4415
RightForeArm  79.8177 79.2959 92.8416
RightHand  0.0835576 7.83367 0.354059
LeftUpLeg  1.32315 1.78551 3.85625
LeftLeg  -2.46092 15.068 -0.935141
LeftFoot  1.19982 0.426083 -3.99547
LeftToes  4.78049e-008 1.46235e-008 1.34219e-009
29
root  -3.23057 41.0062 -0.201855 20.4123 -88.5044 -19.2967
RightUpLeg  2.34017 -1.18359 -0.526133
RightLeg  -5.27682 -21.7392 3.06151
RightFoot  2.29727 -0.180651 1.64644
RightToes  -3.1126e-008 1.75238e-005 3.56266e-009
Spine  10.5614 1.17028 -3.10655
Spine1  -14.9347 0.860208 2.80476
HEad  2.61633 -1.29592 1.05726
LeftShoulder1  0.319914 2.2237 -18.3715
LeftArm  -54.9154 -2.31724 -30.0199
LeftForeArm  131.243 -76.2621 -132.882
LeftHand  -0.533228 -3.77789 7.01829
RightShoulder  1.19945 0.982166 20.4433
RightArm  6.8556 -14.7215 27.1468
RightForeArm  76.8069 79.2775 90.5149
RightHand  0.000274737 7.23105 -0.355842
LeftUpLeg  1.28693 1.77478 3.86971
LeftLeg  -2.48012 14.8493 -0.917324
LeftFoot  1.2329 0.426622 -3.94341
LeftToes  4.78049e-008 1.46235e-008 1.34219e-009
30
root  -3.21909 41.0053 -0.21376 17.4761 -88.3347 -16.3519
RightUpLeg  2.29812 -1.18428 -0.527726
RightLeg  -5.20776 -21.9221 3.03533
RightFoot  2.26779 -0.179569 1.64694
RightToes  -3.1126e-008 1.75238e-005 3.56266e-009
Spine  10.807 1.24557 -2.88348
Spine1  -15.1889 0.966465 2.36485
HEad  2.85723 -1.50128 1.29665
LeftShoulder1  0.335887 2.16223 -18.4223
LeftArm  -55.6584 0.661033 -30.3026
LeftForeArm  131.714 -76.2098 -133.174
LeftHand  -0.627762 -4.29426 7.8124
RightShoulder  1.15162 0.821948 20.3251
RightArm  5.07144 -13.5365 27.0589
RightForeArm  74.7798 79.2657 88.7062
RightHand  -0.0420393 7.16325 -0.7467
LeftUpLeg  1.20919 1.74359 3.85079
LeftLeg  -2.43889 14.7374 -0.890844
LeftFoot  1.27434 0.43258 -3.96356
LeftToes  4.78049e-008 1.46235e-008 1.34219e-009
31
root  -3.21327 41.0045 -0.222951 15.26 -88.143 -14.1109
RightUpLeg  2.30232 -1.22577 -0.548983
RightLeg  -5.25304 -22.0688 3.10669
RightFoot  2.2609 -0.175323 1.58841
RightToes  -3.1126e-008 1.75238e-005 3.56266e-009
Spine  10.8001 1.38453 -2.82889
Spine1  -15.1024 1.11156 2.21449
HEad  2.61827 -1.71523 1.50526
LeftShoulder1  0.32818 2.20217 -18.6124
LeftArm  -56.5023 3.44568 -30.8682
LeftForeArm  131.716 -76.0385 -133.779
LeftHand  -0.61393 -3.60907 8.14138
RightShoulder  1.14968 0.829529 20.2265
RightArm  3.06556 -12.7989 26.6904
RightForeArm  74.1686 79.2575 88.2085
RightHand  -0.00987829 7.39174 -0.454782
LeftUpLeg  1.11888 1.67099 3.82062
LeftLeg  -2.39358 14.6039 -0.816307
LeftFoot  1.27814 0.445028 -4.09522
LeftToes  4.78049e-008 1.46235e-008 1.34219e-009
32
root  -3.21469 41.0038 -0.230929 15.0517 -88.0918 -13.8792
RightUpLeg  2.30171 -1.21312 -0.524587
RightLeg  -5.30278 -22.1451 3.13123
RightFoot  2.26251 -0.173087 1.55614
RightToes  -3.1126e-008 1.75238e-005 3.56266e-009
Spine  10.8406 1.47047 -2.6748
Spine1  -15.1175 1.21694 1.93254
HEad  2.66729 -1.64997 1.49263
LeftShoulder1  0.284789 2.37994 -18.7357
LeftArm  -57.7166 6.23353 -31.4248
LeftForeArm  131.739 -75.9565 -134.069
LeftHand  -0.52399 -3.06275 7.37458
RightShoulder  1.12133 0.758045 19.988
RightArm  1.41289 -11.8054 26.7918
RightForeArm  72.682 79.2479 86.6501
RightHand  0.0106212 7.58587 -0.274619
LeftUpLeg  1.09994 1.63952 3.81673
LeftLeg  -2.42855 14.5483 -0.785128
LeftFoot  1.2797 0.449391 -4.12935
LeftToes  4.78049e-008 1.46235e-008 1.34219e-009
33
root  -3.21574 41.0031 -0.241989 15.6054 -88.0583 -14.435
RightUpLeg  2.32255 -1.20439 -0.487597
RightLeg  -5.33507 -22.1748 3.16617
RightFoot  2.25088 -0.170286 1.51523
RightToes  -3.1126e-008 1.75238e-005 3.56266e-009
Spine  10.9065 1.69144 -2.55043
Spine1  -15.1441 1.44913 1.72214
HEad  2.75126 -1.42286 1.31126
LeftShoulder1  0.200668 2.71227 -18.7379
LeftArm  -58.1939 8.72095 -32.2656
LeftForeArm  131.831 -76.0374 -133.81
LeftHand  -0.704827 -3.81141 9.1325
RightShoulder  1.0525 0.557513 19.569
RightArm  0.0481667 -11.2521 26.9434
RightForeArm  71.7447 79.2193 86.2471
RightHand  -0.06483 7.32507 -0.952436
LeftUpLeg  1.07194 1.68983 3.87966
LeftLeg  -2.36911 14.4584 -0.790207
LeftFoot  1.2784 0.449556 -4.10803
LeftToes  4.78049e-008 1.46235e-008 1.34219e-009
